<?xml version="1.0" encoding="iso-8859-1"?>
<!-- Generator: Adobe Illustrator 19.0.0, SVG Export Plug-In . SVG Version: 6.00 Build 0)  -->
<svg version="1.1" id="Capa_1" xmlns="http://www.w3.org/2000/svg" xmlns:xlink="http://www.w3.org/1999/xlink" x="0px" y="0px"
	 viewBox="0 0 511.95 511.95" style="enable-background:new 0 0 511.95 511.95;" xml:space="preserve">
<g>
	<g>
		<path d="M237.84,328.093c-2.159-0.547-4.315,0.75-4.858,2.89c-5.649,22.319-11.921,43.77-18.639,63.76
			c-0.703,2.093,0.426,4.359,2.519,5.062c0.422,0.141,0.851,0.211,1.273,0.211c1.672,0,3.23-1.055,3.792-2.727
			c6.781-20.186,13.108-41.824,18.811-64.338C241.278,330.811,239.985,328.632,237.84,328.093z"/>
	</g>
</g>
<g>
	<g>
		<path d="M297.705,394.743c-6.719-19.99-12.993-41.442-18.639-63.76c-0.547-2.14-2.718-3.437-4.859-2.89
			c-2.14,0.539-3.437,2.717-2.898,4.858c5.704,22.514,12.032,44.152,18.811,64.338c0.562,1.672,2.117,2.727,3.789,2.727
			c0.421,0,0.859-0.07,1.28-0.211C297.283,399.102,298.408,396.837,297.705,394.743z"/>
	</g>
</g>
<g>
	<g>
		<path d="M248.1,87.996c-2.285-0.312-4.054,1.664-4.124,3.871c-0.078,2.55-9.078,256.788-103.42,414.022
			c-1.137,1.897-0.524,4.358,1.371,5.491c0.645,0.382,1.356,0.57,2.055,0.57c1.36,0,2.683-0.688,3.433-1.937
			c95.424-159.047,104.478-415.326,104.56-417.896C252.041,89.91,250.307,88.062,248.1,87.996z"/>
	</g>
</g>
<g>
	<g>
		<path d="M371.393,505.888c-94.201-157-103.342-411.472-103.42-414.022c-0.07-2.207-1.813-3.961-4.127-3.871
			c-2.207,0.071-3.937,1.918-3.867,4.125c0.332,10.507,9.283,259.111,104.554,417.892c0.75,1.25,2.071,1.938,3.43,1.938
			c0.703,0,1.414-0.188,2.063-0.571C371.916,510.246,372.526,507.785,371.393,505.888z"/>
	</g>
</g>
<g>
	<g>
		<path d="M259.975,155.985c0-2.211-1.793-4-4-4c-2.211,0-4,1.793-4,4l0.016,127.987c0,2.211,1.793,4,4,4c2.211,0,4-1.797,4-4
			L259.975,155.985z"/>
	</g>
</g>
<g>
	<g>
		<path d="M331.631,506.349c-0.218-0.508-22.662-50.394-75.656-50.394c-52.999,0-75.438,49.886-75.657,50.394
			c-0.887,2.023,0.035,4.382,2.062,5.265c0.52,0.227,1.063,0.336,1.598,0.336c1.543,0,3.012-0.891,3.667-2.398
			c0.2-0.453,20.502-45.597,68.33-45.597c47.691,0,67.51,43.746,68.328,45.604c0.89,2.016,3.257,2.938,5.273,2.047
			C331.592,510.723,332.514,508.371,331.631,506.349z"/>
	</g>
</g>
<g>
	<g>
		<path d="M199.98,503.951h-71.993c-2.21,0-3.999,1.789-3.999,3.999c0,2.211,1.789,4,3.999,4h71.993c2.211,0,4-1.789,4-4
			C203.98,505.74,202.191,503.951,199.98,503.951z"/>
	</g>
</g>
<g>
	<g>
		<path d="M383.961,503.951h-71.992c-2.211,0-4,1.789-4,3.999c0,2.211,1.789,4,4,4h71.992c2.211,0,4-1.789,4-4
			C387.961,505.74,386.172,503.951,383.961,503.951z"/>
	</g>
</g>
<g>
	<g>
		<path d="M303.971,295.971h-95.992c-2.21,0-3.999,1.789-3.999,4c0,2.21,1.789,3.999,3.999,3.999h95.992
			c2.209,0,3.998-1.789,3.998-3.999C307.969,297.76,306.18,295.971,303.971,295.971z"/>
	</g>
</g>
<g>
	<g>
		<path d="M327.967,407.96H183.982c-2.211,0-4,1.788-4,3.999s1.789,4,4,4h143.985c2.211,0,4-1.789,4-4
			S330.178,407.96,327.967,407.96z"/>
	</g>
</g>
<g>
	<g>
		<path d="M295.174,311.969h-78.398c-2.211,0-4,1.789-4,4s1.79,4,4,4h78.398c2.211,0,4-1.789,4-4S297.385,311.969,295.174,311.969z"
			/>
	</g>
</g>
<g>
	<g>
		<path d="M263.975,39.996h-16c-6.617,0-11.999,5.382-11.999,11.999v15.999c0,6.616,5.383,11.999,11.999,11.999h16
			c6.615,0,11.998-5.383,11.998-11.999V51.995C275.973,45.378,270.59,39.996,263.975,39.996z M267.973,67.995
			c0,2.208-1.797,4-3.998,4h-16c-2.207,0-3.999-1.793-3.999-4V51.996c0-2.207,1.792-4,3.999-4v-0.001h16
			c2.201,0,3.998,1.793,3.998,4V67.995z"/>
	</g>
</g>
<g>
	<g>
		<path d="M329.373,423.958H182.572c-2.211,0-4,1.789-4,4c0,2.21,1.789,3.999,4,3.999h146.801c2.219,0,4-1.789,4-3.999
			C333.373,425.747,331.592,423.958,329.373,423.958z"/>
	</g>
</g>
<g>
	<g>
		<path d="M255.975,0c-2.211,0-4,1.789-4,3.999v39.997c0,2.211,1.79,4,4,4c2.211,0,4-1.79,4-4.001V3.999
			C259.975,1.789,258.186,0,255.975,0z"/>
	</g>
</g>
<g>
	<g>
		<path d="M199.98,419.967c-2.211,0-4,1.788-4,3.999v3.992c0,2.21,1.789,3.999,4,3.999s4-1.789,4-3.999v-3.992
			C203.98,421.755,202.191,419.967,199.98,419.967z"/>
	</g>
</g>
<g>
	<g>
		<path d="M215.979,419.967c-2.211,0-4,1.788-4,3.999v3.992c0,2.21,1.79,3.999,4,3.999c2.21,0,3.999-1.789,4-3.999v-3.992
			C219.979,421.755,218.19,419.967,215.979,419.967z"/>
	</g>
</g>
<g>
	<g>
		<path d="M231.977,419.967c-2.211,0-4,1.788-4,3.999v3.992c0,2.21,1.789,3.999,4,3.999s4-1.789,4-3.999v-3.992
			C235.977,421.755,234.188,419.967,231.977,419.967z"/>
	</g>
</g>
<g>
	<g>
		<path d="M247.975,419.967c-2.21,0-3.999,1.788-3.999,3.999v3.992c0,2.21,1.789,3.999,3.999,3.999c2.211,0,4-1.789,4-3.999v-3.992
			C251.975,421.755,250.186,419.967,247.975,419.967z"/>
	</g>
</g>
<g>
	<g>
		<path d="M263.975,419.967c-2.211,0-4,1.788-4,3.999v3.992c0,2.21,1.789,3.999,4,3.999c2.209,0,3.998-1.789,3.998-3.999v-3.992
			C267.973,421.755,266.184,419.967,263.975,419.967z"/>
	</g>
</g>
<g>
	<g>
		<path d="M279.973,419.967c-2.211,0-4,1.788-4,3.999v3.992c0,2.21,1.789,3.999,4,3.999c2.211,0,4-1.789,4-3.999v-3.992
			C283.973,421.755,282.184,419.967,279.973,419.967z"/>
	</g>
</g>
<g>
	<g>
		<path d="M295.971,419.967c-2.211,0-4,1.788-4,3.999v3.992c0,2.21,1.789,3.999,4,3.999s4-1.789,4-3.999v-3.992
			C299.971,421.755,298.182,419.967,295.971,419.967z"/>
	</g>
</g>
<g>
	<g>
		<path d="M311.969,419.967c-2.211,0-4,1.788-4,3.999v3.992c0,2.21,1.789,3.999,4,3.999s4-1.789,4-3.999v-3.992
			C315.969,421.755,314.18,419.967,311.969,419.967z"/>
	</g>
</g>
<g>
	<g>
		<path d="M239.976,307.97c-2.211,0-4,1.788-4,3.999v4c0,2.211,1.789,4,4,4s4-1.789,4-4v-4
			C243.976,309.758,242.187,307.97,239.976,307.97z"/>
	</g>
</g>
<g>
	<g>
		<path d="M255.975,307.97c-2.211,0-4,1.788-4,3.999v4c0,2.211,1.79,4,4,4c2.211,0,4-1.789,4-4v-4
			C259.975,309.758,258.186,307.97,255.975,307.97z"/>
	</g>
</g>
<g>
	<g>
		<path d="M271.973,307.97c-2.211,0-4,1.788-4,3.999v4c0,2.211,1.789,4,4,4c2.211,0,4-1.789,4-4v-4
			C275.973,309.758,274.184,307.97,271.973,307.97z"/>
	</g>
</g>
<g>
	<g>
		<path d="M279.973,55.995h-48c-2.211,0-4,1.789-4,4c0,2.21,1.789,3.999,4,3.999h48c2.211,0,4-1.789,4-3.999
			C283.973,57.784,282.184,55.995,279.973,55.995z"/>
	</g>
</g>
<g>
	<g>
		<path d="M431.957,431.958c-2.211,0-4,1.789-4,4v71.992c0,2.211,1.789,4,4,4s4-1.789,4-4v-71.992
			C435.957,433.747,434.168,431.958,431.957,431.958z"/>
	</g>
</g>
<g>
	<g>
		<path d="M431.957,324.765c-24.428,0-35.996,112.004-35.996,119.191c0,12.812,6.898,24.755,17.998,31.177
			c1.922,1.101,4.36,0.461,5.469-1.461c1.109-1.906,0.453-4.359-1.453-5.461c-8.649-4.999-14.016-14.287-14.016-24.255
			c0-26.59,16.672-111.192,27.998-111.192s27.998,84.601,27.998,111.192c0,9.968-5.367,19.264-14,24.255
			c-1.914,1.102-2.57,3.555-1.461,5.461c0.742,1.281,2.086,2,3.461,2c0.688,0,1.375-0.172,2-0.539
			c11.109-6.414,17.998-18.365,17.998-31.177C467.954,436.77,456.386,324.765,431.957,324.765z"/>
	</g>
</g>
<g>
	<g>
		<path d="M79.992,431.958c-2.211,0-4,1.789-4,4v71.992c0,2.211,1.79,4,4,4c2.211,0,4-1.789,4-4v-71.992
			C83.992,433.747,82.203,431.958,79.992,431.958z"/>
	</g>
</g>
<g>
	<g>
		<path d="M79.992,324.765c-24.427,0-35.996,112.004-35.996,119.191c0,12.812,6.898,24.755,18.002,31.177
			c1.914,1.101,4.359,0.461,5.464-1.461c1.109-1.906,0.453-4.359-1.457-5.461c-8.643-4.999-14.01-14.287-14.01-24.255
			c0-26.59,16.666-111.192,27.997-111.192c11.331,0,27.998,84.601,27.998,111.192c0,9.968-5.366,19.264-14.002,24.255
			c-1.91,1.102-2.566,3.555-1.457,5.461c0.738,1.281,2.082,2,3.464,2c0.679,0,1.367-0.172,2-0.539
			c11.1-6.414,17.994-18.365,17.994-31.177C115.989,436.77,104.42,324.765,79.992,324.765z"/>
	</g>
</g>
<g>
</g>
<g>
</g>
<g>
</g>
<g>
</g>
<g>
</g>
<g>
</g>
<g>
</g>
<g>
</g>
<g>
</g>
<g>
</g>
<g>
</g>
<g>
</g>
<g>
</g>
<g>
</g>
<g>
</g>
</svg>
