<?xml version="1.0" encoding="iso-8859-1"?>
<!-- Generator: Adobe Illustrator 19.0.0, SVG Export Plug-In . SVG Version: 6.00 Build 0)  -->
<svg version="1.1" id="Capa_1" xmlns="http://www.w3.org/2000/svg" xmlns:xlink="http://www.w3.org/1999/xlink" x="0px" y="0px"
	 viewBox="0 0 511.73 511.73" style="enable-background:new 0 0 511.73 511.73;" xml:space="preserve">
<g>
	<g>
		<path d="M257.904,0c-25.49,0-43.996,18.838-43.996,44.792c0,27.271,27.419,51.198,43.996,51.198
			c16.576,0,43.996-23.927,43.996-51.198C301.9,18.838,283.394,0,257.904,0z M257.904,87.991c-13.218,0-35.997-21.345-35.997-43.199
			c0-21.318,15.14-36.793,35.997-36.793S293.9,23.474,293.9,44.792C293.9,66.645,271.121,87.991,257.904,87.991z"/>
	</g>
</g>
<g>
	<g>
		<path d="M217.868,103.77H41.886c-2.211,0-4,1.789-4,4s1.789,4,4,4h175.982c2.211,0,4-1.789,4-4S220.079,103.77,217.868,103.77z"/>
	</g>
</g>
<g>
	<g>
		<path d="M473.843,103.77H297.861c-2.211,0-4,1.789-4,4s1.789,4,4,4h175.983c2.21,0,3.999-1.789,3.999-4
			S476.054,103.77,473.843,103.77z"/>
	</g>
</g>
<g>
	<g>
		<path d="M69.087,137.368L45.09,105.371c-1.336-1.778-3.844-2.121-5.602-0.801c-1.765,1.325-2.125,3.832-0.805,5.598l23.998,31.997
			c0.789,1.05,1.993,1.601,3.203,1.601c0.835,0,1.679-0.261,2.399-0.801C70.048,141.641,70.407,139.134,69.087,137.368z"/>
	</g>
</g>
<g>
	<g>
		<path d="M476.242,104.57c-1.758-1.316-4.266-0.969-5.602,0.801l-23.998,31.997c-1.32,1.766-0.961,4.273,0.805,5.597
			c0.718,0.539,1.562,0.801,2.398,0.801c1.211,0,2.415-0.55,3.204-1.601l23.998-31.997
			C478.367,108.402,478.008,105.894,476.242,104.57z"/>
	</g>
</g>
<g>
	<g>
		<path d="M194.371,151.797L66.383,135.798c-2.179-0.238-4.195,1.274-4.468,3.473c-0.273,2.191,1.281,4.191,3.469,4.464
			l127.987,15.999c0.172,0.019,0.336,0.031,0.508,0.031c1.984,0,3.71-1.48,3.96-3.504
			C198.112,154.07,196.558,152.07,194.371,151.797z"/>
	</g>
</g>
<g>
	<g>
		<path d="M193.871,151.765c-2.211,0-4,1.789-4,4V311.75c0,2.211,1.789,4,4,4s3.999-1.789,3.999-4.001V155.765
			C197.87,153.554,196.081,151.765,193.871,151.765z"/>
	</g>
</g>
<g>
	<g>
		<path d="M453.813,139.294c-0.265-2.203-2.32-3.762-4.445-3.5l-95.99,11.429c-2.187,0.262-3.758,2.25-3.492,4.445
			c0.242,2.035,1.969,3.527,3.961,3.527c0.164,0,0.321-0.008,0.484-0.028l95.99-11.429
			C452.508,143.477,454.079,141.489,453.813,139.294z"/>
	</g>
</g>
<g>
	<g>
		<path d="M321.859,311.75c-2.211,0-4,1.789-4,4v55.994c0,2.211,1.789,4,4,4c2.209,0,3.998-1.789,3.998-4V315.75
			C325.857,313.539,324.068,311.75,321.859,311.75z"/>
	</g>
</g>
<g>
	<g>
		<path d="M323.648,372.166L195.66,308.173c-1.976-0.977-4.367-0.188-5.367,1.788c-0.984,1.976-0.188,4.383,1.789,5.367
			l127.988,63.994c0.578,0.281,1.187,0.422,1.789,0.422c1.461,0,2.873-0.813,3.576-2.211
			C326.419,375.557,325.623,373.15,323.648,372.166z"/>
	</g>
</g>
<g>
	<g>
		<path d="M313.859,383.743c-2.211,0-4,1.789-4,4v23.997c0,2.211,1.789,4,4,4s4-1.789,4-4v-23.997
			C317.859,385.532,316.07,383.743,313.859,383.743z"/>
	</g>
</g>
<g>
	<g>
		<path d="M297.861,375.744c-2.211,0-4,1.789-4,4v31.996c0,2.211,1.789,4,4,4s4-1.789,4-4v-31.996
			C301.861,377.533,300.072,375.744,297.861,375.744z"/>
	</g>
</g>
<g>
	<g>
		<path d="M281.863,367.745c-2.211,0-4,1.788-4,3.999v39.996c0,2.211,1.789,4,4,4c2.211,0,3.998-1.789,3.998-4v-39.996
			C285.861,369.533,284.074,367.745,281.863,367.745z"/>
	</g>
</g>
<g>
	<g>
		<path d="M265.863,359.746c-2.209,0-3.998,1.788-3.998,3.999v47.995c0,2.211,1.789,4,3.998,4c2.211,0,4-1.789,4-4v-47.995
			C269.863,361.534,268.074,359.746,265.863,359.746z"/>
	</g>
</g>
<g>
	<g>
		<path d="M249.865,351.746c-2.211,0-4,1.789-4,4v55.994c0,2.211,1.789,4,4,4s4-1.789,4-4v-55.994
			C253.865,353.535,252.076,351.746,249.865,351.746z"/>
	</g>
</g>
<g>
	<g>
		<path d="M233.867,343.747c-2.211,0-4,1.789-4,4v63.993c0,2.211,1.789,4,4,4s3.999-1.789,3.999-4v-63.993
			C237.866,345.536,236.077,343.747,233.867,343.747z"/>
	</g>
</g>
<g>
	<g>
		<path d="M217.868,335.748c-2.21,0-3.999,1.789-3.999,4v71.992c0,2.211,1.789,4,3.999,4c2.211,0,4-1.789,4-4v-71.992
			C221.868,337.537,220.079,335.748,217.868,335.748z"/>
	</g>
</g>
<g>
	<g>
		<path d="M201.87,327.749c-2.211,0-4,1.788-4,3.999v79.992c0,2.211,1.789,4,4,4s4-1.789,4-4v-79.992
			C205.87,329.537,204.081,327.749,201.87,327.749z"/>
	</g>
</g>
<g>
	<g>
		<path d="M332.685,432.91l-8-7.999c-0.748-0.75-1.764-1.172-2.826-1.172H193.871c-1.062,0-2.078,0.422-2.828,1.172l-7.999,7.999
			c-1.562,1.562-1.562,4.094,0,5.656s4.093,1.562,5.655,0l6.828-6.828h124.676l6.826,6.828c0.781,0.781,1.805,1.172,2.828,1.172
			c1.024,0,2.047-0.391,2.828-1.172C334.247,437.004,334.247,434.472,332.685,432.91z"/>
	</g>
</g>
<g>
	<g>
		<path d="M297.861,40.09c-2.211,0-4,1.789-4,3.999v47.682c0,2.211,1.789,4,4,4s4-1.789,4-3.999V44.089
			C301.861,41.879,300.072,40.09,297.861,40.09z"/>
	</g>
</g>
<g>
	<g>
		<path d="M217.907,40.792c-2.21,0-3.999,1.789-3.999,3.999v46.98c0,2.211,1.789,4,3.999,4c2.211,0,4-1.789,4-4v-46.98
			C221.907,42.581,220.118,40.792,217.907,40.792z"/>
	</g>
</g>
<g>
	<g>
		<path d="M257.904,0c-2.211,0-4,1.789-4,3.999v7.78c0,2.211,1.789,4,4,4s4-1.789,4-3.999V3.999C261.904,1.789,260.115,0,257.904,0z
			"/>
	</g>
</g>
<g>
	<g>
		<path d="M237.866,79.038c-2.21,0-3.999,1.789-3.999,4v24.732c0,2.211,1.789,4,3.999,4c2.211,0,4-1.789,4-4V83.038
			C241.866,80.827,240.077,79.038,237.866,79.038z"/>
	</g>
</g>
<g>
	<g>
		<path d="M277.863,79.038c-2.211,0-4,1.789-4,4v24.732c0,2.211,1.789,4,4,4c2.211,0,4-1.789,4-4V83.038
			C281.863,80.827,280.074,79.038,277.863,79.038z"/>
	</g>
</g>
<g>
	<g>
		<path d="M260.936,9.171c-1.43-1.668-3.953-1.856-5.641-0.422l-39.957,34.395c-1.672,1.441-1.867,3.964-0.422,5.64
			c0.789,0.918,1.906,1.391,3.031,1.391c0.921,0,1.851-0.321,2.609-0.968l39.958-34.396C262.186,13.37,262.381,10.847,260.936,9.171
			z"/>
	</g>
</g>
<g>
	<g>
		<path d="M300.471,43.143L260.514,8.748c-1.672-1.433-4.196-1.25-5.641,0.422c-1.445,1.676-1.249,4.199,0.422,5.64l39.957,34.396
			c0.757,0.653,1.679,0.969,2.609,0.969c1.125,0,2.242-0.473,3.032-1.392C302.338,47.107,302.143,44.584,300.471,43.143z"/>
	</g>
</g>
<g>
	<g>
		<path d="M345.855,447.737H169.873c-2.211,0-4,1.788-4,3.999v55.994c0,2.211,1.789,4,4,4h175.982c2.211,0,4-1.789,4-4v-55.994
			C349.855,449.525,348.066,447.737,345.855,447.737z M341.857,503.731H173.873v-47.995h167.984V503.731z"/>
	</g>
</g>
<g>
	<g>
		<path d="M25.888,103.77H9.889c-2.21,0-3.999,1.789-3.999,4s1.789,4,3.999,4h15.999c2.21,0,3.999-1.789,3.999-4
			S28.098,103.77,25.888,103.77z"/>
	</g>
</g>
<g>
	<g>
		<path d="M28.715,120.941l-15.998-15.999c-1.563-1.562-4.094-1.562-5.656,0c-1.562,1.563-1.562,4.094,0,5.656l15.999,15.998
			c0.781,0.781,1.805,1.172,2.828,1.172s2.046-0.39,2.827-1.171C30.277,125.034,30.277,122.503,28.715,120.941z"/>
	</g>
</g>
<g>
	<g>
		<path d="M33.887,119.769h-6.664c-2.211,0-4,1.789-4,3.999c0,2.211,1.79,4,4,4h6.664c2.21,0,3.999-1.789,4-4
			C37.887,121.558,36.097,119.769,33.887,119.769z"/>
	</g>
</g>
<g>
	<g>
		<path d="M501.842,103.77h-16c-2.211,0-3.998,1.789-3.998,4s1.787,4,3.998,4h16c2.209,0,3.998-1.789,3.998-4
			S504.051,103.77,501.842,103.77z"/>
	</g>
</g>
<g>
	<g>
		<path d="M504.668,104.941c-1.562-1.562-4.092-1.562-5.654,0l-16,15.999c-1.561,1.563-1.561,4.094,0,5.656
			c0.781,0.781,1.805,1.172,2.828,1.172s2.046-0.39,2.828-1.172l15.998-15.999C506.23,109.035,506.23,106.503,504.668,104.941z"/>
	</g>
</g>
<g>
	<g>
		<path d="M484.506,119.769h-6.662c-2.211,0-4,1.789-4,3.999c0,2.211,1.789,4,4,4h6.662c2.211,0,4-1.789,4-4
			C488.506,121.558,486.717,119.769,484.506,119.769z"/>
	</g>
</g>
<g>
	<g>
		<path d="M313.859,127.768c-2.211,0-4,1.79-4,4v159.984c0,2.211,1.789,4,4,4s4-1.789,4-4V131.768
			C317.859,129.557,316.07,127.768,313.859,127.768z"/>
	</g>
</g>
<g>
	<g>
		<path d="M337.857,135.767c-2.211,0-4,1.789-4,4v167.984c0,2.21,1.789,3.999,4,3.999s4-1.789,4-4V139.767
			C341.857,137.556,340.068,135.767,337.857,135.767z"/>
	</g>
</g>
<g>
	<g>
		<path d="M340.076,304.423l-23.998-15.998c-1.828-1.219-4.313-0.735-5.547,1.108c-1.227,1.844-0.727,4.32,1.109,5.547
			l23.998,15.998c0.68,0.453,1.453,0.672,2.219,0.672c1.289,0,2.555-0.625,3.328-1.781
			C342.412,308.126,341.912,305.65,340.076,304.423z"/>
	</g>
</g>
<g>
	<g>
		<path d="M301.838,155.323c-0.242-2.2-2.149-3.793-4.422-3.535c-68.744,7.703-100.116-30.141-100.428-30.528
			c-1.391-1.714-3.914-1.983-5.617-0.605c-1.719,1.383-2,3.89-0.625,5.613c1.243,1.543,28.412,34.567,88.25,34.567
			c6.092,0,12.529-0.34,19.311-1.094C300.502,159.495,302.08,157.518,301.838,155.323z"/>
	</g>
</g>
<g>
	<g>
		<path d="M299.126,247.965c-69.017-23.01-85.312-69.013-85.468-69.474c-0.703-2.086-2.968-3.219-5.062-2.512
			c-2.085,0.699-3.218,2.957-2.523,5.05c0.679,2.035,17.475,50.171,90.522,74.52c0.422,0.141,0.844,0.207,1.266,0.207
			c1.672,0,3.234-1.059,3.796-2.733C302.353,250.925,301.22,248.66,299.126,247.965z"/>
	</g>
</g>
<g>
	<g>
		<path d="M299.064,303.939c-68.884-21.764-85.156-84.503-85.312-85.136c-0.539-2.137-2.68-3.457-4.836-2.926
			c-2.148,0.531-3.46,2.691-2.929,4.835c0.164,0.676,17.381,67.697,90.671,90.85c0.398,0.126,0.805,0.188,1.203,0.188
			c1.703,0,3.274-1.094,3.812-2.795C302.337,306.845,301.173,304.603,299.064,303.939z"/>
	</g>
</g>
<g>
	<g>
		<path d="M300.689,104.942c-1.562-1.562-4.094-1.562-5.656,0c-0.148,0.148-15.084,14.827-37.168,14.827
			c-21.959,0-37.028-14.687-37.176-14.835c-1.563-1.546-4.086-1.546-5.648,0.016c-1.562,1.563-1.562,4.09,0,5.648
			c0.703,0.703,17.459,17.17,42.824,17.17s42.121-16.467,42.824-17.17C302.251,109.036,302.251,106.504,300.689,104.942z"/>
	</g>
</g>
<g>
</g>
<g>
</g>
<g>
</g>
<g>
</g>
<g>
</g>
<g>
</g>
<g>
</g>
<g>
</g>
<g>
</g>
<g>
</g>
<g>
</g>
<g>
</g>
<g>
</g>
<g>
</g>
<g>
</g>
</svg>
