<?xml version="1.0" encoding="iso-8859-1"?>
<!-- Generator: Adobe Illustrator 19.0.0, SVG Export Plug-In . SVG Version: 6.00 Build 0)  -->
<svg version="1.1" id="Capa_1" xmlns="http://www.w3.org/2000/svg" xmlns:xlink="http://www.w3.org/1999/xlink" x="0px" y="0px"
	 viewBox="0 0 512 512" style="enable-background:new 0 0 512 512;" xml:space="preserve">
<g>
	<g>
		<path d="M390.315,338.795c-0.085-0.299-0.149-0.597-0.256-0.896l-41.536-116.928c-11.115-42.176-49.152-71.637-92.523-71.637
			s-81.408,29.461-92.267,70.805l-42.048,118.677c-2.901,11.221-4.352,22.827-4.352,34.517C117.333,449.792,179.541,512,256,512
			s138.667-62.208,138.667-138.667C394.667,361.643,393.216,350.037,390.315,338.795z M256,490.667
			c-64.683,0-117.333-52.651-117.333-117.333c0-9.856,1.237-19.691,3.392-28.288l42.048-118.656
			c8.64-32.811,38.208-55.723,71.893-55.723c33.685,0,63.253,22.912,72.149,56.576l41.621,117.333
			c2.347,9.365,3.563,19.029,3.563,28.757C373.333,438.016,320.683,490.667,256,490.667z"/>
	</g>
</g>
<g>
	<g>
		<path d="M194.389,181.035C122.795,155.115,74.667,86.656,74.667,10.667C74.667,4.779,69.888,0,64,0S53.333,4.779,53.333,10.667
			c0,84.928,53.781,161.451,133.803,190.421c1.195,0.427,2.411,0.64,3.627,0.64c4.352,0,8.469-2.688,10.027-7.04
			C202.816,189.141,199.936,183.04,194.389,181.035z"/>
	</g>
</g>
<g>
	<g>
		<path d="M448,0c-5.888,0-10.667,4.779-10.667,10.667c0,75.989-48.128,144.448-119.723,170.368
			c-5.547,2.005-8.427,8.107-6.4,13.653c1.579,4.352,5.675,7.04,10.027,7.04c1.195,0,2.432-0.213,3.627-0.64
			c80.021-28.971,133.803-105.493,133.803-190.421C458.667,4.779,453.888,0,448,0z"/>
	</g>
</g>
<g>
	<g>
		<path d="M398.613,135.659C369.408,118.101,352,87.339,352,53.333c0-5.888-4.779-10.667-10.667-10.667s-10.667,4.779-10.667,10.667
			c0,41.536,21.291,79.168,56.939,100.629c1.728,1.024,3.627,1.515,5.504,1.515c3.605,0,7.147-1.835,9.152-5.163
			C405.291,145.259,403.648,138.709,398.613,135.659z"/>
	</g>
</g>
<g>
	<g>
		<path d="M170.667,42.667c-5.888,0-10.667,4.779-10.667,10.667c0,34.005-17.429,64.789-46.656,82.347
			c-5.035,3.051-6.677,9.621-3.648,14.656c2.005,3.328,5.547,5.163,9.152,5.163c1.877,0,3.776-0.491,5.504-1.515
			c35.691-21.461,56.981-59.093,56.981-100.651C181.333,47.445,176.555,42.667,170.667,42.667z"/>
	</g>
</g>
<g>
	<g>
		<circle cx="213.333" cy="266.667" r="10.667"/>
	</g>
</g>
<g>
	<g>
		<circle cx="298.667" cy="266.667" r="10.667"/>
	</g>
</g>
<g>
	<g>
		<path d="M332.139,365.056c-7.915-3.243-16.576-3.2-24.491,0.128c-7.893,3.307-14.016,9.472-17.237,17.387
			c-2.24,5.461,0.384,11.691,5.824,13.909c5.461,2.219,11.691-0.363,13.909-5.824c1.088-2.645,3.136-4.693,5.76-5.803
			c2.645-1.088,5.525-1.152,8.149-0.043c5.44,2.219,8.064,8.469,5.845,13.909c-2.24,5.461,0.384,11.691,5.824,13.909
			c1.323,0.533,2.688,0.789,4.032,0.789c4.203,0,8.192-2.496,9.899-6.613C356.331,390.443,348.48,371.733,332.139,365.056z"/>
	</g>
</g>
<g>
	<g>
		<path d="M221.611,382.549c-3.243-7.915-9.365-14.08-17.237-17.387c-7.893-3.328-16.555-3.371-24.491-0.128
			c-16.32,6.656-24.192,25.387-17.515,41.749c1.685,4.139,5.675,6.635,9.877,6.635c1.365,0,2.709-0.256,4.053-0.811
			c5.419-2.219,8.043-8.448,5.824-13.909c-2.24-5.44,0.384-11.691,5.845-13.909c2.624-1.109,5.525-1.045,8.149,0.043
			c2.645,1.088,4.672,3.157,5.76,5.803c2.219,5.44,8.427,8.043,13.909,5.824C221.205,394.24,223.829,388.011,221.611,382.549z"/>
	</g>
</g>
<g>
	<g>
		<path d="M392.704,375.701C368.555,341.845,314.901,320,256,320c-58.837,0-112.491,21.824-136.683,55.637
			c-3.435,4.779-2.347,11.456,2.453,14.869c4.715,3.392,11.435,2.368,14.869-2.453c20.331-28.395,67.179-46.72,119.36-46.72
			c52.224,0,99.093,18.347,119.339,46.741c2.069,2.923,5.376,4.48,8.683,4.48c2.155,0,4.309-0.64,6.187-1.984
			C395.008,387.157,396.117,380.501,392.704,375.701z"/>
	</g>
</g>
<g>
	<g>
		<path d="M413.973,217.685c-1.877-2.581-4.843-4.203-8.043-4.373c-1.408-0.085-34.368-1.707-59.093,11.989
			c-5.141,2.859-7.019,9.365-4.16,14.507c2.88,5.141,9.429,6.997,14.507,4.16c9.941-5.504,22.187-7.829,31.765-8.768
			c-5.141,8.896-13.931,19.072-27.648,20.864c-5.867,0.789-9.963,6.144-9.216,11.968c0.704,5.376,5.291,9.301,10.56,9.301
			c0.469,0,0.939-0.021,1.408-0.128c39.061-5.099,51.115-48.64,51.605-50.496C416.469,223.595,415.872,220.288,413.973,217.685z"/>
	</g>
</g>
<g>
	<g>
		<path d="M165.184,225.429c-24.747-13.717-57.728-12.075-59.093-11.989c-3.2,0.171-6.165,1.792-8.043,4.373
			c-1.899,2.603-2.496,5.909-1.685,9.024c0.491,1.856,12.544,45.397,51.605,50.496c0.448,0.064,0.939,0.085,1.387,0.085
			c5.269,0,9.856-3.925,10.581-9.259c0.747-5.845-3.371-11.2-9.216-11.968c-13.568-1.771-22.379-11.947-27.563-20.864
			c9.557,0.96,21.76,3.264,31.68,8.768c5.12,2.816,11.627,1.003,14.507-4.16C172.203,234.773,170.325,228.288,165.184,225.429z"/>
	</g>
</g>
<g>
</g>
<g>
</g>
<g>
</g>
<g>
</g>
<g>
</g>
<g>
</g>
<g>
</g>
<g>
</g>
<g>
</g>
<g>
</g>
<g>
</g>
<g>
</g>
<g>
</g>
<g>
</g>
<g>
</g>
</svg>
