<?xml version="1.0" encoding="iso-8859-1"?>
<!-- Generator: Adobe Illustrator 19.0.0, SVG Export Plug-In . SVG Version: 6.00 Build 0)  -->
<svg version="1.1" id="Capa_1" xmlns="http://www.w3.org/2000/svg" xmlns:xlink="http://www.w3.org/1999/xlink" x="0px" y="0px"
	 viewBox="0 0 511.951 511.951" style="enable-background:new 0 0 511.951 511.951;" xml:space="preserve">
<g>
	<g>
		<path d="M507.951,455.956H4.001c-2.211,0-4,1.789-4,4s1.789,4,4,4h503.95c2.211,0,4-1.789,4-4S510.162,455.956,507.951,455.956z"
			/>
	</g>
</g>
<g>
	<g>
		<path d="M163.985,311.969H91.992c-2.211,0-4,1.789-4,4v127.988c0,2.211,1.789,4,4,4s4-1.789,4-4V319.969h67.993
			c2.21,0,3.999-1.789,3.999-4S166.195,311.969,163.985,311.969z"/>
	</g>
</g>
<g>
	<g>
		<path d="M331.968,263.976H179.983c-2.211,0-4,1.789-4,4v175.982c0,2.211,1.789,4,4,4s4-1.789,4-4V271.974h143.985v171.984
			c0,2.211,1.789,4,4,4s4-1.789,4-4V267.976C335.968,265.765,334.179,263.976,331.968,263.976z"/>
	</g>
</g>
<g>
	<g>
		<path d="M123.989,311.969c-2.211,0-4,1.789-4,4v127.988c0,2.211,1.789,4,4,4s3.999-1.789,3.999-4V315.969
			C127.988,313.758,126.199,311.969,123.989,311.969z"/>
	</g>
</g>
<g>
	<g>
		<path d="M151.986,335.968c-8.824,0-15.999,7.172-15.999,15.998v19.998c0,2.211,1.79,4,4,4h23.998c2.211,0,3.999-1.789,3.999-4
			v-19.998C167.984,343.14,160.81,335.968,151.986,335.968z M159.985,367.966h-15.998v-16c0-4.404,3.589-7.998,7.999-7.998
			s7.999,3.594,7.999,7.998V367.966z"/>
	</g>
</g>
<g>
	<g>
		<path d="M151.986,391.962c-8.824,0-15.999,7.172-15.999,16v19.998c0,2.209,1.79,3.998,4,3.998h23.998
			c2.211,0,3.999-1.789,3.999-3.998v-19.998C167.984,399.134,160.81,391.962,151.986,391.962z M159.985,423.96h-15.998v-15.998
			c0-4.406,3.589-8,7.999-8s7.999,3.594,7.999,8V423.96z"/>
	</g>
</g>
<g>
	<g>
		<path d="M101.124,392.806c-2.09-0.719-4.363,0.414-5.07,2.508c-0.707,2.093,0.414,4.367,2.507,5.07
			c3.246,1.094,5.43,4.14,5.43,7.578v15.998h-4c-2.211,0-4,1.789-4,4c0,2.209,1.79,3.998,4,3.998h8c2.21,0,3.999-1.789,3.999-3.998
			v-19.998C111.99,401.095,107.624,395.001,101.124,392.806z"/>
	</g>
</g>
<g>
	<g>
		<path d="M101.124,336.812c-2.09-0.703-4.363,0.414-5.07,2.508c-0.707,2.093,0.414,4.367,2.507,5.07
			c3.246,1.094,5.43,4.14,5.43,7.576v16h-4c-2.211,0-4,1.787-4,3.998s1.79,4,4,4h8c2.21,0,3.999-1.789,3.999-4v-19.998
			C111.99,345.101,107.624,339.007,101.124,336.812z"/>
	</g>
</g>
<g>
	<g>
		<path d="M419.96,311.969h-71.994c-2.211,0-4,1.789-4,4s1.789,4,4,4h67.994v123.988c0,2.211,1.789,4,4,4s3.998-1.789,3.998-4
			V315.969C423.958,313.758,422.171,311.969,419.96,311.969z"/>
	</g>
</g>
<g>
	<g>
		<path d="M387.962,311.969c-2.211,0-4,1.789-4,4v127.988c0,2.211,1.789,4,4,4s4-1.789,4-4V315.969
			C391.962,313.758,390.173,311.969,387.962,311.969z"/>
	</g>
</g>
<g>
	<g>
		<path d="M359.966,335.968c-8.828,0-16,7.172-16,15.998v19.998c0,2.211,1.789,4,4,4h23.998c2.211,0,4-1.789,4-4v-19.998
			C375.964,343.14,368.792,335.968,359.966,335.968z M367.964,367.966h-15.998v-16c0-4.404,3.594-7.998,8-7.998
			c4.404,0,7.998,3.594,7.998,7.998V367.966z"/>
	</g>
</g>
<g>
	<g>
		<path d="M359.966,391.962c-8.828,0-16,7.172-16,16v19.998c0,2.209,1.789,3.998,4,3.998h23.998c2.211,0,4-1.789,4-3.998v-19.998
			C375.964,399.134,368.792,391.962,359.966,391.962z M367.964,423.96h-15.998v-15.998c0-4.406,3.594-8,8-8
			c4.404,0,7.998,3.594,7.998,8V423.96z"/>
	</g>
</g>
<g>
	<g>
		<path d="M411.959,423.96h-4v-15.998c0-3.437,2.18-6.484,5.43-7.578c2.086-0.703,3.211-2.976,2.508-5.07
			c-0.711-2.094-2.968-3.227-5.07-2.508c-6.5,2.195-10.865,8.281-10.865,15.156v19.998c0,2.209,1.789,3.998,3.998,3.998h8
			c2.211,0,4-1.789,3.999-3.998C415.959,425.749,414.17,423.96,411.959,423.96z"/>
	</g>
</g>
<g>
	<g>
		<path d="M411.959,367.966h-4v-16c0-3.435,2.18-6.482,5.43-7.576c2.086-0.703,3.211-2.976,2.508-5.07
			c-0.711-2.094-2.968-3.227-5.07-2.508c-6.5,2.195-10.865,8.281-10.865,15.154v19.998c0,2.211,1.789,4,3.998,4h8
			c2.211,0,3.999-1.789,3.999-4S414.17,367.966,411.959,367.966z"/>
	</g>
</g>
<g>
	<g>
		<path d="M255.976,335.968c-28.708,0-47.996,19.287-47.996,47.996v59.994c0,2.211,1.789,4,4,4s4-1.789,4-4v-59.994
			c0-24.295,15.698-39.996,39.996-39.996c22.053,0,39.996,17.943,39.996,39.996v59.994c0,2.211,1.789,4,4,4s4-1.789,4-4v-59.994
			C303.972,357.497,282.443,335.968,255.976,335.968z"/>
	</g>
</g>
<g>
	<g>
		<path d="M211.98,319.97c-2.211,0-4,1.789-4,4v23.998c0,2.209,1.789,3.998,4,3.998s4-1.789,4-3.998V323.97
			C215.98,321.759,214.191,319.97,211.98,319.97z"/>
	</g>
</g>
<g>
	<g>
		<path d="M299.972,319.969H211.98c-2.211,0-4,1.789-4,4s1.789,4,4,4h87.992c2.211,0,4-1.789,4-4S302.183,319.969,299.972,319.969z"
			/>
	</g>
</g>
<g>
	<g>
		<path d="M299.972,319.969c-2.211,0-4,1.789-4,4v16.631c0,2.211,1.789,4,4,4s4-1.789,4-4v-16.631
			C303.972,321.758,302.183,319.969,299.972,319.969z"/>
	</g>
</g>
<g>
	<g>
		<path d="M283.974,399.961h-55.996c-2.21,0-3.999,1.789-3.999,4s1.789,4,3.999,4h55.996c2.209,0,3.998-1.789,3.998-4
			S286.183,399.961,283.974,399.961z"/>
	</g>
</g>
<g>
	<g>
		<path d="M255.976,367.966c-2.211,0-4,1.787-4,3.998v16c0,2.209,1.79,3.998,4,3.998c2.211,0,4-1.789,4-3.998v-16
			C259.976,369.753,258.187,367.966,255.976,367.966z"/>
	</g>
</g>
<g>
	<g>
		<path d="M255.976,415.96c-2.211,0-4,1.789-4,4v15.998c0,2.211,1.79,4,4,4c2.211,0,4-1.789,4-4V419.96
			C259.976,417.749,258.187,415.96,255.976,415.96z"/>
	</g>
</g>
<g>
	<g>
		<path d="M91.992,271.974c-2.211,0-4,1.789-4,4v39.996c0,2.211,1.789,4,4,4s4-1.789,4-4v-39.996
			C95.992,273.763,94.203,271.974,91.992,271.974z"/>
	</g>
</g>
<g>
	<g>
		<path d="M419.96,271.974c-2.211,0-4,1.789-4,4v39.996c0,2.211,1.789,4,4,4s3.998-1.789,3.998-4v-39.996
			C423.958,273.763,422.171,271.974,419.96,271.974z"/>
	</g>
</g>
<g>
	<g>
		<path d="M363.964,263.976c-11.029,0-19.998,8.967-19.998,19.998c0,2.211,1.789,4,4,4s4-1.789,4-4c0-6.617,5.383-12,11.998-12
			c6.617,0,12,5.383,12,12c0,2.211,1.789,4,4,4s3.998-1.789,3.998-4C383.962,272.943,374.995,263.976,363.964,263.976z"/>
	</g>
</g>
<g>
	<g>
		<path d="M347.966,279.974c-2.211,0-4,1.789-4,4v15.998c0,2.211,1.789,4,4,4s4-1.789,4-4v-15.998
			C351.966,281.763,350.177,279.974,347.966,279.974z"/>
	</g>
</g>
<g>
	<g>
		<path d="M379.964,279.974c-2.211,0-4,1.789-4,4v15.998c0,2.211,1.789,4,4,4s3.998-1.789,3.998-4v-15.998
			C383.962,281.763,382.175,279.974,379.964,279.974z"/>
	</g>
</g>
<g>
	<g>
		<path d="M363.964,287.974c-2.209,0-3.998,1.787-3.998,3.998v8c0,2.211,1.789,4,3.998,4c2.211,0,4-1.789,4-4v-8
			C367.964,289.76,366.175,287.974,363.964,287.974z"/>
	</g>
</g>
<g>
	<g>
		<path d="M379.964,279.974h-31.998c-2.211,0-4,1.789-4,4s1.789,4,4,4h31.998c2.211,0,3.998-1.789,3.998-4
			S382.175,279.974,379.964,279.974z"/>
	</g>
</g>
<g>
	<g>
		<path d="M363.964,255.976c-2.209,0-3.998,1.789-3.998,4v8c0,2.209,1.789,3.998,3.998,3.998c2.211,0,4-1.789,4-3.998v-8
			C367.964,257.765,366.175,255.976,363.964,255.976z"/>
	</g>
</g>
<g>
	<g>
		<path d="M147.985,263.976c-11.026,0-19.998,8.967-19.998,19.998c0,2.211,1.789,4,4,4s4-1.789,4-4c0-6.617,5.383-12,11.999-12
			c6.617,0,11.999,5.383,11.999,12c0,2.211,1.789,4,4,4s3.999-1.789,3.998-4C167.983,272.943,159.011,263.976,147.985,263.976z"/>
	</g>
</g>
<g>
	<g>
		<path d="M131.988,279.974c-2.211,0-4,1.789-4,4v15.998c0,2.211,1.789,4,4,4s4-1.789,4-4v-15.998
			C135.988,281.763,134.199,279.974,131.988,279.974z"/>
	</g>
</g>
<g>
	<g>
		<path d="M163.985,279.974c-2.211,0-4,1.789-4,4v15.998c0,2.211,1.789,4,4,4s3.999-1.789,3.999-4v-15.998
			C167.984,281.763,166.195,279.974,163.985,279.974z"/>
	</g>
</g>
<g>
	<g>
		<path d="M147.986,287.974c-2.21,0-3.999,1.787-3.999,3.998v8c0,2.211,1.789,4,3.999,4c2.211,0,4-1.789,4-4v-8
			C151.986,289.76,150.197,287.974,147.986,287.974z"/>
	</g>
</g>
<g>
	<g>
		<path d="M163.985,279.974h-31.997c-2.211,0-4,1.789-4,4s1.789,4,4,4h31.997c2.211,0,3.999-1.789,3.999-4
			S166.195,279.974,163.985,279.974z"/>
	</g>
</g>
<g>
	<g>
		<path d="M147.986,255.976c-2.21,0-3.999,1.789-3.999,4v8c0,2.209,1.789,3.998,3.999,3.998c2.211,0,4-1.789,4-3.998v-8
			C151.986,257.765,150.197,255.976,147.986,255.976z"/>
	</g>
</g>
<g>
	<g>
		<path d="M107.991,295.971c-2.211,0-4,1.789-4,4v14.748c0,2.211,1.789,4,4,4c2.21,0,3.999-1.789,4-4v-14.748
			C111.991,297.76,110.201,295.971,107.991,295.971z"/>
	</g>
</g>
<g>
	<g>
		<path d="M403.96,295.971c-2.209,0-3.998,1.789-3.998,4v14.748c0,2.211,1.789,4,3.998,4c2.211,0,4-1.789,4-4v-14.748
			C407.96,297.76,406.171,295.971,403.96,295.971z"/>
	</g>
</g>
<g>
	<g>
		<path d="M353.943,163.935c-19.647-57.123-93.225-90.218-96.35-91.6c-2.016-0.875-4.378,0.027-5.273,2.042
			c-0.895,2.019,0.019,4.378,2.039,5.273c0.73,0.328,73.515,33.091,92.021,86.886c14.492,42.136-17.209,82.539-17.537,82.941
			c-1.375,1.726-1.094,4.241,0.625,5.62c0.742,0.59,1.625,0.879,2.5,0.879c1.172,0,2.328-0.511,3.125-1.499
			C336.515,252.695,369.886,210.294,353.943,163.935z"/>
	</g>
</g>
<g>
	<g>
		<path d="M259.433,74.376c-0.891-2.022-3.27-2.933-5.273-2.042c-3.125,1.382-76.708,34.477-96.351,91.6
			c-15.947,46.359,17.424,88.761,18.854,90.542c0.789,0.988,1.949,1.5,3.121,1.5c0.879,0,1.762-0.289,2.497-0.88
			c1.727-1.379,2.004-3.894,0.629-5.62c-0.325-0.402-32.029-40.804-17.538-82.941c18.502-53.796,91.292-86.558,92.022-86.886
			C259.413,78.755,260.328,76.396,259.433,74.376z"/>
	</g>
</g>
<g>
	<g>
		<path d="M255.976,23.999c-2.211,0-4,1.789-4,4v47.995c0,2.211,1.79,4,4,4c2.211,0,4-1.789,4-4V27.999
			C259.976,25.788,258.187,23.999,255.976,23.999z"/>
	</g>
</g>
<g>
	<g>
		<path d="M331.968,207.979H179.983c-2.211,0-4,1.789-4,4s1.789,4,4,4h151.985c2.211,0,4-1.789,4-4S334.179,207.979,331.968,207.979
			z"/>
	</g>
</g>
<g>
	<g>
		<path d="M323.97,223.979H187.982c-2.21,0-3.999,1.789-3.999,4s1.789,4,3.999,4H323.97c2.209,0,3.998-1.789,3.998-4
			S326.179,223.979,323.97,223.979z"/>
	</g>
</g>
<g>
	<g>
		<path d="M275.974,95.992h-39.996c-2.211,0-4,1.789-4,4c0,2.21,1.79,3.999,4,3.999h39.996c2.211,0,4-1.788,4-3.999
			S278.185,95.992,275.974,95.992z"/>
	</g>
</g>
<g>
	<g>
		<path d="M195.982,219.979c-2.211,0-4,1.79-4,4v4c0,2.211,1.79,4,4,4c2.21,0,3.999-1.789,4-4v-4
			C199.982,221.768,198.193,219.979,195.982,219.979z"/>
	</g>
</g>
<g>
	<g>
		<path d="M219.979,219.979c-2.211,0-4,1.79-4,4v4c0,2.211,1.789,4,4,4s4-1.789,4-4v-4
			C223.979,221.768,222.19,219.979,219.979,219.979z"/>
	</g>
</g>
<g>
	<g>
		<path d="M243.977,219.979c-2.211,0-4,1.79-4,4v4c0,2.211,1.789,4,4,4s3.999-1.789,3.999-4v-4
			C247.976,221.768,246.187,219.979,243.977,219.979z"/>
	</g>
</g>
<g>
	<g>
		<path d="M267.974,219.979c-2.211,0-3.998,1.79-3.998,4v4c0,2.211,1.787,4,3.998,4c2.211,0,4-1.789,4-4v-4
			C271.974,221.768,270.185,219.979,267.974,219.979z"/>
	</g>
</g>
<g>
	<g>
		<path d="M291.972,219.979c-2.211,0-4,1.79-4,4v4c0,2.211,1.789,4,4,4s4-1.789,4-4v-4
			C295.972,221.768,294.183,219.979,291.972,219.979z"/>
	</g>
</g>
<g>
	<g>
		<path d="M315.97,219.979c-2.211,0-4,1.79-4,4v4c0,2.211,1.789,4,4,4s4-1.789,4-4v-4
			C319.97,221.768,318.181,219.979,315.97,219.979z"/>
	</g>
</g>
<g>
	<g>
		<path d="M507.951,479.955H4.001c-2.211,0-4,1.789-4,4s1.789,3.998,4,3.998h503.95c2.211,0,4-1.787,4-3.998
			S510.162,479.955,507.951,479.955z"/>
	</g>
</g>
<g>
	<g>
		<path d="M4.001,455.956c-2.211,0-4,1.789-4,4v23.999c0,2.211,1.789,3.998,4,3.998s3.999-1.788,4-3.999v-23.998
			C8.001,457.745,6.212,455.956,4.001,455.956z"/>
	</g>
</g>
<g>
	<g>
		<path d="M507.951,455.956c-2.211,0-4,1.789-4,4v23.999c0,2.211,1.789,3.998,4,3.998s4-1.788,4-3.999v-23.998
			C511.951,457.745,510.162,455.956,507.951,455.956z"/>
	</g>
</g>
<g>
	<g>
		<path d="M27.998,255.976H4c-2.211,0-4,1.789-4,4v183.982c0,2.211,1.789,4,4,4s4-1.789,4-4V263.976h15.998v179.982
			c0,2.211,1.79,4,4,4c2.211,0,4-1.789,4-4V259.976C31.998,257.765,30.208,255.976,27.998,255.976z"/>
	</g>
</g>
<g>
	<g>
		<path d="M67.995,319.969H51.996c-2.211,0-4,1.789-4,4v119.988c0,2.211,1.789,4,4,4s4-1.789,4-4V327.969h7.999v115.988
			c0,2.211,1.79,4,4,4c2.21,0,3.999-1.789,4-4V323.969C71.995,321.758,70.205,319.969,67.995,319.969z"/>
	</g>
</g>
<g>
	<g>
		<path d="M31.947,238.692C31.291,230.47,24.39,223.978,16,223.978c-8.824,0-15.999,7.176-15.999,15.999c0,2.211,1.789,4,4,4h23.998
			c0.055-0.008,0.101-0.004,0.16,0c2.206,0,3.999-1.789,3.999-4C32.158,239.528,32.084,239.094,31.947,238.692z M9.074,235.978
			c1.383-2.39,3.969-3.999,6.926-4c2.956,0,5.542,1.609,6.925,4H9.074z"/>
	</g>
</g>
<g>
	<g>
		<path d="M16,247.977c-2.211,0-4,1.789-4,4v7.999c0,2.211,1.789,4,4,4c2.21,0,3.999-1.789,3.999-4v-7.999
			C19.999,249.766,18.21,247.977,16,247.977z"/>
	</g>
</g>
<g>
	<g>
		<path d="M4.001,247.977c-2.211,0-4,1.789-4,4v7.999c0,2.211,1.789,4,4,4s3.999-1.789,4-4v-7.999
			C8.001,249.766,6.212,247.977,4.001,247.977z"/>
	</g>
</g>
<g>
	<g>
		<path d="M27.998,247.977c-2.211,0-4,1.789-4,4v7.999c0,2.211,1.79,4,4,4c2.211,0,4-1.789,4-4v-7.999
			C31.998,249.766,30.209,247.977,27.998,247.977z"/>
	</g>
</g>
<g>
	<g>
		<path d="M16,215.979c-2.211,0-4,1.79-4,4v8c0,2.211,1.789,4,4,4c2.21,0,3.999-1.789,3.999-4v-8
			C19.999,217.768,18.21,215.979,16,215.979z"/>
	</g>
</g>
<g>
	<g>
		<path d="M59.995,295.971c-6.617,0-11.999,5.383-11.999,12c0,2.209,1.789,3.998,4,3.998s4-1.789,4-3.998c0-2.203,1.792-4,3.999-4
			c2.207,0,4,1.797,4,4c0,2.209,1.79,3.998,4,3.998c2.21,0,3.999-1.789,3.999-3.998C71.994,301.354,66.612,295.971,59.995,295.971z"
			/>
	</g>
</g>
<g>
	<g>
		<path d="M51.996,311.969c-2.211,0-4,1.789-4,4v8c0,2.211,1.789,4,4,4s4-1.789,4-4v-8
			C55.996,313.758,54.207,311.969,51.996,311.969z"/>
	</g>
</g>
<g>
	<g>
		<path d="M67.995,311.969c-2.211,0-4,1.789-4,4v8c0,2.211,1.79,4,4,4c2.21,0,3.999-1.789,4-4v-8
			C71.995,313.758,70.206,311.969,67.995,311.969z"/>
	</g>
</g>
<g>
	<g>
		<path d="M59.995,287.974c-2.21,0-3.999,1.787-3.999,3.998v8c0,2.211,1.789,4,3.999,4c2.211,0,4-1.789,4-4v-8
			C63.995,289.76,62.206,287.974,59.995,287.974z"/>
	</g>
</g>
<g>
	<g>
		<path d="M27.999,311.969H4.001c-2.211,0-4,1.789-4,4s1.789,4,4,4h23.997c2.211,0,4.001-1.789,4.001-4
			S30.209,311.969,27.999,311.969z"/>
	</g>
</g>
<g>
	<g>
		<path d="M27.999,367.966H4.001c-2.211,0-4,1.787-4,3.998s1.789,4,4,4h23.997c2.211,0,4.001-1.789,4.001-4
			S30.209,367.966,27.999,367.966z"/>
	</g>
</g>
<g>
	<g>
		<path d="M67.995,351.966H51.996c-2.211,0-4,1.789-4,4s1.789,4,4,4h15.999c2.21,0,4-1.789,4-4S70.205,351.966,67.995,351.966z"/>
	</g>
</g>
<g>
	<g>
		<path d="M67.995,383.964H51.996c-2.211,0-4,1.789-4,4c0,2.209,1.789,3.998,4,3.998h15.999c2.21,0,3.999-1.789,4-3.998
			C71.995,385.753,70.205,383.964,67.995,383.964z"/>
	</g>
</g>
<g>
	<g>
		<path d="M507.951,255.976h-23.998c-2.209,0-3.998,1.789-3.998,4v183.982c0,2.211,1.789,4,3.998,4c2.211,0,4-1.789,4-4V263.976
			h15.998v179.982c0,2.211,1.789,4,4,4s4-1.789,4-4V259.976C511.951,257.765,510.162,255.976,507.951,255.976z"/>
	</g>
</g>
<g>
	<g>
		<path d="M459.956,319.969h-16c-2.209,0-3.998,1.789-3.998,4v119.988c0,2.211,1.789,4,3.998,4c2.211,0,4-1.789,4-4V327.969h8
			v115.988c0,2.211,1.789,4,4,4s3.999-1.789,3.998-4V323.969C463.954,321.758,462.167,319.969,459.956,319.969z"/>
	</g>
</g>
<g>
	<g>
		<path d="M495.953,223.978c-8.828,0-15.998,7.176-15.998,15.999c0,2.211,1.789,4,3.998,4h23.998c2.211,0,4-1.789,4-4
			C511.951,231.153,504.779,223.978,495.953,223.978z M489.031,235.978c1.375-2.39,3.969-4,6.922-4s5.547,1.609,6.92,4H489.031z"/>
	</g>
</g>
<g>
	<g>
		<path d="M495.953,247.977c-2.211,0-4,1.789-4,4v7.999c0,2.211,1.789,4,4,4s4-1.789,4-4v-7.999
			C499.953,249.766,498.164,247.977,495.953,247.977z"/>
	</g>
</g>
<g>
	<g>
		<path d="M507.951,247.977c-2.211,0-4,1.789-4,4v7.999c0,2.211,1.789,4,4,4s4-1.789,4-4v-7.999
			C511.951,249.766,510.162,247.977,507.951,247.977z"/>
	</g>
</g>
<g>
	<g>
		<path d="M483.953,247.977c-2.209,0-3.998,1.789-3.998,4v7.999c0,2.211,1.789,4,3.998,4c2.211,0,4-1.789,4-4v-7.999
			C487.953,249.766,486.164,247.977,483.953,247.977z"/>
	</g>
</g>
<g>
	<g>
		<path d="M495.953,215.979c-2.211,0-4,1.79-4,4v8c0,2.211,1.789,4,4,4s4-1.789,4-4v-8
			C499.953,217.768,498.164,215.979,495.953,215.979z"/>
	</g>
</g>
<g>
	<g>
		<path d="M451.956,295.971c-6.617,0-11.998,5.383-11.998,12c0,2.209,1.789,3.998,3.998,3.998c2.211,0,4-1.789,4-3.998
			c0-2.203,1.797-4,4-4s4,1.797,4,4c0,2.209,1.789,3.998,4,3.998s3.999-1.789,3.998-3.998
			C463.954,301.354,458.573,295.971,451.956,295.971z"/>
	</g>
</g>
<g>
	<g>
		<path d="M459.956,311.969c-2.211,0-4,1.789-4,4v8c0,2.211,1.789,4,4,4s3.999-1.789,3.998-4v-8
			C463.954,313.758,462.167,311.969,459.956,311.969z"/>
	</g>
</g>
<g>
	<g>
		<path d="M443.956,311.969c-2.209,0-3.998,1.789-3.998,4v8c0,2.211,1.789,4,3.998,4c2.211,0,4-1.789,4-4v-8
			C447.956,313.758,446.167,311.969,443.956,311.969z"/>
	</g>
</g>
<g>
	<g>
		<path d="M451.956,287.974c-2.211,0-4,1.787-4,3.998v8c0,2.211,1.789,4,4,4s4-1.789,4-4v-8
			C455.956,289.76,454.167,287.974,451.956,287.974z"/>
	</g>
</g>
<g>
	<g>
		<path d="M507.951,311.969h-23.998c-2.209,0-3.998,1.789-3.998,4s1.789,4,3.998,4h23.998c2.211,0,4-1.789,4-4
			S510.162,311.969,507.951,311.969z"/>
	</g>
</g>
<g>
	<g>
		<path d="M507.951,367.966h-23.998c-2.209,0-3.998,1.787-3.998,3.998s1.789,4,3.998,4h23.998c2.211,0,4-1.789,4-4
			S510.162,367.966,507.951,367.966z"/>
	</g>
</g>
<g>
	<g>
		<path d="M459.956,351.966h-16c-2.209,0-3.998,1.789-3.998,4s1.789,4,3.998,4h16c2.211,0,3.998-1.789,3.998-4
			S462.167,351.966,459.956,351.966z"/>
	</g>
</g>
<g>
	<g>
		<path d="M459.956,383.964h-16c-2.209,0-3.998,1.789-3.998,4c0,2.209,1.789,3.998,3.998,3.998h16c2.211,0,3.999-1.789,3.998-3.998
			C463.954,385.753,462.167,383.964,459.956,383.964z"/>
	</g>
</g>
<g>
	<g>
		<path d="M31.998,471.955c-2.211,0-4,1.789-4,4v8c0,2.211,1.789,3.998,4,3.998c2.211,0,4-1.788,4-3.998v-8
			C35.998,473.744,34.209,471.955,31.998,471.955z"/>
	</g>
</g>
<g>
	<g>
		<path d="M63.995,455.957c-2.211,0-4,1.789-4,4v8c0,2.209,1.789,3.998,4,3.998c2.21,0,4-1.79,4-3.998v-8
			C67.995,457.746,66.205,455.957,63.995,455.957z"/>
	</g>
</g>
<g>
	<g>
		<path d="M95.992,471.955c-2.211,0-4,1.789-4,4v8c0,2.211,1.79,3.998,4,3.998c2.21,0,3.999-1.788,4-3.998v-8
			C99.992,473.744,98.203,471.955,95.992,471.955z"/>
	</g>
</g>
<g>
	<g>
		<path d="M127.988,455.957c-2.21,0-3.999,1.789-3.999,4v8c0,2.209,1.789,3.998,3.999,3.998c2.211,0,4-1.79,4-3.998v-8
			C131.988,457.746,130.199,455.957,127.988,455.957z"/>
	</g>
</g>
<g>
	<g>
		<path d="M159.985,471.955c-2.211,0-4,1.789-4,4v8c0,2.211,1.79,3.998,4,3.998c2.211,0,4-1.788,4-3.998v-8
			C163.985,473.744,162.196,471.955,159.985,471.955z"/>
	</g>
</g>
<g>
	<g>
		<path d="M191.982,455.957c-2.211,0-4,1.789-4,4v8c0,2.209,1.789,3.998,4,3.998s4-1.79,4-3.998v-8
			C195.982,457.746,194.193,455.957,191.982,455.957z"/>
	</g>
</g>
<g>
	<g>
		<path d="M223.979,471.955c-2.211,0-4,1.789-4,4v8c0,2.211,1.789,3.998,4,3.998s3.999-1.788,3.999-3.998v-8
			C227.978,473.744,226.189,471.955,223.979,471.955z"/>
	</g>
</g>
<g>
	<g>
		<path d="M255.976,455.957c-2.211,0-4,1.789-4,4v8c0,2.209,1.79,3.998,4,3.998c2.211,0,4-1.79,4-3.998v-8
			C259.976,457.746,258.187,455.957,255.976,455.957z"/>
	</g>
</g>
<g>
	<g>
		<path d="M287.972,471.955c-2.211,0-3.998,1.789-3.998,4v8c0,2.211,1.787,3.998,3.998,3.998s4-1.788,4-3.998v-8
			C291.972,473.744,290.183,471.955,287.972,471.955z"/>
	</g>
</g>
<g>
	<g>
		<path d="M319.97,455.957c-2.211,0-4,1.789-4,4v8c0,2.209,1.789,3.998,4,3.998s4-1.79,4-3.998v-8
			C323.97,457.746,322.181,455.957,319.97,455.957z"/>
	</g>
</g>
<g>
	<g>
		<path d="M351.966,471.955c-2.211,0-4,1.789-4,4v8c0,2.211,1.789,3.998,4,3.998s4-1.788,4-3.998v-8
			C355.966,473.744,354.177,471.955,351.966,471.955z"/>
	</g>
</g>
<g>
	<g>
		<path d="M383.962,455.957c-2.209,0-3.998,1.789-3.998,4v8c0,2.209,1.789,3.998,3.998,3.998c2.211,0,4-1.79,4-3.998v-8
			C387.962,457.746,386.173,455.957,383.962,455.957z"/>
	</g>
</g>
<g>
	<g>
		<path d="M415.96,471.955c-2.211,0-4,1.789-4,4v8c0,2.211,1.789,3.998,4,3.998s4-1.788,4-3.998v-8
			C419.96,473.744,418.171,471.955,415.96,471.955z"/>
	</g>
</g>
<g>
	<g>
		<path d="M447.956,455.957c-2.211,0-4,1.789-4,4v8c0,2.209,1.789,3.998,4,3.998s4-1.79,4-3.998v-8
			C451.956,457.746,450.167,455.957,447.956,455.957z"/>
	</g>
</g>
<g>
	<g>
		<path d="M479.955,471.955c-2.211,0-4,1.789-4,4v8c0,2.211,1.789,3.998,4,3.998c2.21,0,3.998-1.788,3.998-3.998v-8
			C483.953,473.744,482.166,471.955,479.955,471.955z"/>
	</g>
</g>
<g>
</g>
<g>
</g>
<g>
</g>
<g>
</g>
<g>
</g>
<g>
</g>
<g>
</g>
<g>
</g>
<g>
</g>
<g>
</g>
<g>
</g>
<g>
</g>
<g>
</g>
<g>
</g>
<g>
</g>
</svg>
