<?xml version="1.0" encoding="iso-8859-1"?>
<!-- Generator: Adobe Illustrator 19.0.0, SVG Export Plug-In . SVG Version: 6.00 Build 0)  -->
<svg version="1.1" id="Capa_1" xmlns="http://www.w3.org/2000/svg" xmlns:xlink="http://www.w3.org/1999/xlink" x="0px" y="0px"
	 viewBox="0 0 512.001 512.001" style="enable-background:new 0 0 512.001 512.001;" xml:space="preserve">
<g>
	<g>
		<path d="M477.199,267.257l-35.593-64.428c-0.032-7.822-0.21-31.408-0.572-36.273c-0.01-0.121-0.02-0.241-0.034-0.362
			l-1.542-13.866c-0.013-0.117-0.027-0.233-0.045-0.349c-6.946-47.246-30.585-86.393-68.36-113.21
			C335.897,13.811,290.065,0.407,238.51,0.006C237.968,0.002,237.438,0,236.897,0C125.186,0,33.414,90.369,31.992,202.182
			c-1.078,84.651,49.93,160.918,127.773,192.491l-17.944,84.458c-0.579,2.726,0.005,5.57,1.613,7.846
			c1.607,2.276,4.092,3.779,6.855,4.145l156.83,20.791c0.444,0.059,0.886,0.088,1.322,0.088c4.462,0,8.461-2.989,9.648-7.402
			l20.662-76.78c1.488,0.138,3.138,0.288,4.919,0.447c9.233,0.83,20.89,1.832,29.041,2.527c7.038,0.6,42.238,3.59,44.086,3.59
			c7.657,0,14.692-2.939,19.809-8.274c4.905-5.115,7.467-11.837,7.229-18.95V303.533l17.036-2.899
			c7.285-1.146,13.57-5.773,16.828-12.394C480.97,281.588,480.784,273.745,477.199,267.257z M459.752,279.41
			c-0.282,0.573-0.858,1.293-2.003,1.468c-0.056,0.008-0.111,0.018-0.167,0.027l-25.426,4.327c-4.807,0.818-8.322,4.983-8.322,9.858
			v112.253c0,0.14,0.003,0.28,0.009,0.42c0.092,2.183-0.859,3.653-1.674,4.503c-1.268,1.321-3.098,2.068-5.17,2.114
			c-5.696-0.356-77.168-6.371-83.763-7.199c-1.286-0.253-2.626-0.254-3.953,0.02c-3.698,0.765-6.65,3.547-7.632,7.194
			l-20.598,76.539L163.63,472.716l15.433-72.638l69.06,13.485c0.648,0.127,1.292,0.188,1.927,0.188c4.687,0,8.872-3.313,9.804-8.085
			c1.059-5.42-2.478-10.673-7.898-11.731l-77.932-15.217c-74.023-26.725-123.038-97.472-122.034-176.28
			c1.291-101.383,84.846-183.2,186.365-182.432C337.98,20.781,407.413,72.391,419.6,154.717l1.5,13.485
			c0.199,3.036,0.355,15.118,0.44,24.801h-21.444c-5.522,0-10,4.477-10,10s4.478,10,10,10h24.282l35.315,63.925
			C460.253,277.941,460.034,278.837,459.752,279.41z"/>
	</g>
</g>
<g>
	<g>
		<path d="M299.186,409.35c-0.12-0.64-0.32-1.27-0.57-1.87c-0.25-0.61-0.56-1.19-0.92-1.73c-0.359-0.55-0.779-1.06-1.239-1.52
			c-0.46-0.46-0.971-0.88-1.521-1.24c-0.54-0.36-1.12-0.67-1.72-0.92c-0.61-0.25-1.24-0.44-1.88-0.57c-1.28-0.26-2.61-0.26-3.9,0
			c-0.64,0.13-1.27,0.32-1.87,0.57c-0.609,0.25-1.19,0.56-1.729,0.92c-0.55,0.36-1.061,0.78-1.521,1.24
			c-0.46,0.46-0.88,0.97-1.25,1.52c-0.35,0.54-0.66,1.12-0.91,1.73c-0.25,0.6-0.449,1.23-0.569,1.87c-0.13,0.64-0.2,1.3-0.2,1.95
			c0,0.66,0.07,1.31,0.2,1.96c0.12,0.64,0.319,1.26,0.569,1.87c0.25,0.6,0.561,1.18,0.91,1.72c0.37,0.55,0.79,1.06,1.25,1.52
			c0.46,0.461,0.971,0.88,1.521,1.25c0.54,0.36,1.12,0.67,1.729,0.92c0.601,0.25,1.23,0.44,1.87,0.57c0.64,0.13,1.3,0.19,1.95,0.19
			s1.31-0.06,1.95-0.19s1.27-0.32,1.88-0.57c0.6-0.25,1.18-0.56,1.72-0.92c0.55-0.37,1.061-0.789,1.521-1.25
			c0.46-0.46,0.88-0.97,1.239-1.52c0.36-0.54,0.67-1.12,0.92-1.72c0.25-0.61,0.45-1.23,0.57-1.87c0.13-0.65,0.2-1.3,0.2-1.96
			C299.386,410.65,299.316,409.99,299.186,409.35z"/>
	</g>
</g>
<g>
	<g>
		<path d="M201.132,223.039c-5.523,0-10,4.477-10,10c0,11.056-8.995,20.05-20.05,20.05c-5.523,0-10,4.477-10,10s4.477,10,10,10
			c22.084,0,40.05-17.966,40.05-40.05C211.132,227.516,206.655,223.039,201.132,223.039z"/>
	</g>
</g>
<g>
	<g>
		<path d="M196.036,138.716c-5.523,0-10,4.477-10,10c0,11.056-8.995,20.05-20.05,20.05c-5.523,0-10,4.477-10,10s4.477,10,10,10
			c22.084,0,40.05-17.966,40.05-40.05C206.036,143.193,201.559,138.716,196.036,138.716z"/>
	</g>
</g>
<g>
	<g>
		<path d="M362.53,193.044c0-17.446-8.84-33.361-23.221-42.949c4.956-12.001,5.051-25.688-0.096-37.736
			c-0.046-0.106-0.093-0.212-0.142-0.316c-8.952-19.097-25.86-29.998-46.105-30.139c-8.716-16.414-24.547-26.019-44.437-26.657
			c-0.107-0.004-0.214-0.005-0.321-0.005c-8.259,0-16.218,1.895-23.362,5.509c-12.013-6.312-25.631-7.21-40.586-2.632
			c-0.164,0.05-0.326,0.104-0.487,0.163c-10.849,3.942-19.922,11.412-25.729,20.993c-0.247-0.004-0.491-0.006-0.734-0.006
			c-17.604,0-34.061,8.426-44.018,22.531c-10.349,14.633-12.093,33.528-5.227,49.686c-13.196,9.681-21.058,24.813-21.058,41.474
			c0,17.448,8.839,33.363,23.222,42.95c-4.956,12.001-5.05,25.688,0.096,37.736c0.045,0.106,0.093,0.211,0.142,0.316
			c8.952,19.098,25.859,29.999,46.105,30.139c8.715,16.414,24.546,26.018,44.436,26.657c0.107,0.003,0.214,0.005,0.321,0.005
			c8.7,0,17.067-2.101,24.498-6.102c5.986,2.017,16.431,4.923,26.923,4.923c4.266,0,8.539-0.481,12.521-1.698
			c0.165-0.051,0.329-0.105,0.491-0.165c10.851-3.941,19.923-11.411,25.73-20.993c0.247,0.004,0.491,0.006,0.734,0.006
			c17.605,0,34.062-8.426,44.018-22.531c10.349-14.632,12.092-33.528,5.227-49.685C354.668,224.837,362.53,209.705,362.53,193.044z
			 M214.771,307.85c-4.079,1.895-8.59,2.892-13.282,2.914c-14.121-0.507-24.506-7.786-29.254-20.513
			c-1.472-3.946-5.234-6.505-9.364-6.505c-0.393,0-0.789,0.023-1.187,0.07c-14.701,1.746-26.726-4.877-33.033-18.183
			c-2.636-6.277-2.847-13.315-0.796-19.756c3.098,1.08,6.333,1.622,9.56,1.622c7.222,0,14.394-2.712,19.835-8.152
			c3.905-3.905,3.905-10.237,0-14.143c-3.905-3.905-10.237-3.905-14.143,0c-3.185,3.185-8.764,2.986-12.181-0.433
			c-0.085-0.085-0.177-0.158-0.264-0.239c-0.107-0.099-0.213-0.198-0.324-0.293c-0.179-0.153-0.363-0.295-0.55-0.434
			c-0.096-0.07-0.188-0.143-0.287-0.211c-0.242-0.166-0.491-0.317-0.743-0.46c-0.055-0.031-0.107-0.066-0.162-0.096
			c-0.333-0.179-0.672-0.341-1.019-0.48c-12.495-5.038-20.569-16.655-20.569-29.601c0-8.577,3.45-16.505,9.406-22.356
			c5.11,7.51,13.674,12.391,23.388,12.391c5.523,0,10-4.477,10-10c0-5.523-4.477-10-10-10c-4.501,0-8.17-3.629-8.352-8.261
			c-0.002-0.047-0.01-0.092-0.013-0.139c-0.008-0.153-0.026-0.305-0.041-0.458c-0.02-0.203-0.041-0.405-0.073-0.603
			c-0.022-0.136-0.051-0.27-0.078-0.404c-0.044-0.215-0.091-0.428-0.148-0.637c-0.033-0.121-0.071-0.241-0.108-0.361
			c-0.068-0.217-0.142-0.43-0.224-0.64c-0.045-0.115-0.092-0.229-0.141-0.342c-0.09-0.208-0.189-0.411-0.292-0.612
			c-0.058-0.112-0.115-0.223-0.177-0.333c-0.112-0.198-0.233-0.388-0.358-0.577c-0.051-0.077-0.092-0.158-0.145-0.233
			c-7.592-10.85-7.603-25.336-0.023-36.054c5.898-8.355,15.509-13.509,25.965-14.021c3.973,10.972,14.588,18.845,27.031,18.845
			c5.523,0,10-4.477,10-10c0-5.523-4.477-10-10-10c-4.178,0-7.675-2.853-8.512-6.643c3.317-6.608,9.008-11.659,16.259-14.356
			c9.426-2.84,17.306-2.575,24.399,0.882V307.85z M333.124,215.402c-5.11-7.51-13.674-12.391-23.389-12.391c-5.522,0-10,4.477-10,10
			s4.478,10,10,10c4.501,0,8.17,3.629,8.353,8.261c0.002,0.049,0.01,0.096,0.013,0.144c0.007,0.14,0.024,0.278,0.037,0.417
			c0.021,0.214,0.044,0.427,0.077,0.637c0.02,0.123,0.045,0.245,0.07,0.368c0.045,0.227,0.096,0.452,0.157,0.674
			c0.029,0.107,0.06,0.212,0.093,0.318c0.073,0.235,0.154,0.466,0.243,0.693c0.037,0.094,0.073,0.187,0.112,0.28
			c0.103,0.24,0.216,0.475,0.337,0.704c0.04,0.077,0.078,0.156,0.12,0.232c0.15,0.269,0.312,0.529,0.485,0.781
			c0.02,0.029,0.035,0.061,0.056,0.09c7.592,10.851,7.604,25.336,0.023,36.054c-5.898,8.355-15.509,13.509-25.965,14.021
			c-3.973-10.972-14.588-18.845-27.03-18.845c-5.522,0-10,4.477-10,10s4.478,10,10,10c4.178,0,7.674,2.853,8.511,6.642
			c-3.313,6.601-8.995,11.648-16.234,14.347c-6.45,1.853-16.668,0.018-24.424-2.303V78.156c4.079-1.895,8.589-2.892,13.28-2.914
			c14.12,0.506,24.506,7.786,29.254,20.512c1.612,4.322,5.972,6.973,10.55,6.435c14.69-1.749,26.726,4.876,33.034,18.183
			c2.636,6.279,2.847,13.317,0.794,19.759c-10.033-3.498-21.522-1.343-29.394,6.527c-3.905,3.905-3.905,10.237,0,14.143
			c3.906,3.905,10.236,3.905,14.143,0c3.186-3.185,8.764-2.987,12.181,0.432c0.085,0.085,0.178,0.158,0.265,0.24
			c0.106,0.099,0.212,0.197,0.323,0.292c0.179,0.153,0.363,0.295,0.55,0.433c0.096,0.071,0.19,0.144,0.288,0.212
			c0.24,0.165,0.487,0.315,0.738,0.456c0.057,0.032,0.111,0.068,0.168,0.099c0.332,0.179,0.67,0.34,1.016,0.478
			c12.497,5.037,20.571,16.656,20.571,29.602C342.53,201.623,339.08,209.551,333.124,215.402z"/>
	</g>
</g>
<g>
	<g>
		<path d="M278.455,112.917c-22.084,0-40.05,17.966-40.05,40.05c0,5.523,4.477,10,10,10c5.523,0,10-4.477,10-10
			c0-11.056,8.994-20.05,20.05-20.05c5.522,0,10-4.477,10-10S283.977,112.917,278.455,112.917z"/>
	</g>
</g>
<g>
	<g>
		<path d="M283.551,197.24c-22.084,0-40.05,17.966-40.05,40.05c0,5.523,4.477,10,10,10c5.523,0,10-4.477,10-10
			c0-11.056,8.994-20.05,20.05-20.05c5.523,0,10-4.477,10-10C293.551,201.717,289.073,197.24,283.551,197.24z"/>
	</g>
</g>
<g>
</g>
<g>
</g>
<g>
</g>
<g>
</g>
<g>
</g>
<g>
</g>
<g>
</g>
<g>
</g>
<g>
</g>
<g>
</g>
<g>
</g>
<g>
</g>
<g>
</g>
<g>
</g>
<g>
</g>
</svg>
