<?xml version="1.0" encoding="UTF-8" standalone="no"?>
<svg width="22px" height="19px" viewBox="0 0 22 19" version="1.1" xmlns="http://www.w3.org/2000/svg" xmlns:xlink="http://www.w3.org/1999/xlink">
    <!-- Generator: Sketch 46 (44423) - http://www.bohemiancoding.com/sketch -->
    <title>Icon</title>
    <desc>Created with Sketch.</desc>
    <defs>
        <path d="M16.9955563,0 L2.12444454,0 C0.945377819,0 0,0.956000042 0,2.12444454 L0,14.8711118 C0,16.0395563 0.945377819,16.9955563 2.12444454,16.9955563 L16.9955563,16.9955563 C18.1640008,16.9955563 19.1200008,16.0395563 19.1200008,14.8711118 L19.1200008,2.12444454 C19.1200008,0.956000042 18.1640008,0 16.9955563,0 L16.9955563,0 Z M8.49777815,7.43555588 L6.90444475,7.43555588 L6.90444475,6.90444475 L4.78000021,6.90444475 L4.78000021,10.0911116 L6.90444475,10.0911116 L6.90444475,9.56000042 L8.49777815,9.56000042 L8.49777815,10.6222227 C8.49777815,11.2064449 8.01977813,11.684445 7.43555588,11.684445 L4.24888908,11.684445 C3.66466683,11.684445 3.18666681,11.2064449 3.18666681,10.6222227 L3.18666681,6.37333361 C3.18666681,5.78911137 3.66466683,5.31111134 4.24888908,5.31111134 L7.43555588,5.31111134 C8.01977813,5.31111134 8.49777815,5.78911137 8.49777815,6.37333361 L8.49777815,7.43555588 L8.49777815,7.43555588 Z M15.933334,7.43555588 L14.3400006,7.43555588 L14.3400006,6.90444475 L12.2155561,6.90444475 L12.2155561,10.0911116 L14.3400006,10.0911116 L14.3400006,9.56000042 L15.933334,9.56000042 L15.933334,10.6222227 C15.933334,11.2064449 15.455334,11.684445 14.8711118,11.684445 L11.684445,11.684445 C11.1002227,11.684445 10.6222227,11.2064449 10.6222227,10.6222227 L10.6222227,6.37333361 C10.6222227,5.78911137 11.1002227,5.31111134 11.684445,5.31111134 L14.8711118,5.31111134 C15.455334,5.31111134 15.933334,5.78911137 15.933334,6.37333361 L15.933334,7.43555588 L15.933334,7.43555588 Z" id="path-1"></path>
    </defs>
    <g id="Page-1" stroke="none" stroke-width="1" fill="none" fill-rule="evenodd">
        <g id="New-Video-Player" transform="translate(-983.000000, -2870.000000)">
            <g id="Caption/Pause-Active-Icons" transform="translate(380.000000, 2447.000000)">
                <g id="Player-UI" transform="translate(0.000000, 404.000000)">
                    <g id="Close-Caption" transform="translate(604.000000, 20.000000)">
                        <g id="Icon">
                            <use fill="#FFFFFF" fill-rule="evenodd" xlink:href="#path-1"></use>
                            <path stroke="#44464A" stroke-width="1" d="M16.9955563,-0.5 C18.4401432,-0.5 19.6200008,0.679857667 19.6200008,2.12444454 L19.6200008,14.8711118 C19.6200008,16.3156986 18.4401432,17.4955563 16.9955563,17.4955563 L2.12444454,17.4955563 C0.672510915,17.4955563 -0.5,16.3189883 -0.5,14.8711118 L-0.5,2.12444454 C-0.5,0.676568046 0.672510915,-0.5 2.12444454,-0.5 L16.9955563,-0.5 Z M7.99777815,6.93555588 L7.99777815,6.37333361 C7.99777815,6.06525374 7.74363575,5.81111134 7.43555588,5.81111134 L4.24888908,5.81111134 C3.9408092,5.81111134 3.68666681,6.06525374 3.68666681,6.37333361 L3.68666681,10.6222227 C3.68666681,10.9303026 3.9408092,11.184445 4.24888908,11.184445 L7.43555588,11.184445 C7.74363575,11.184445 7.99777815,10.9303026 7.99777815,10.6222227 L7.99777815,10.0600004 L7.40444475,10.0600004 L7.40444475,10.5911116 L4.28000021,10.5911116 L4.28000021,6.40444475 L7.40444475,6.40444475 L7.40444475,6.93555588 L7.99777815,6.93555588 Z M15.433334,6.93555588 L15.433334,6.37333361 C15.433334,6.06525374 15.1791916,5.81111134 14.8711118,5.81111134 L11.684445,5.81111134 C11.3763651,5.81111134 11.1222227,6.06525374 11.1222227,6.37333361 L11.1222227,10.6222227 C11.1222227,10.9303026 11.3763651,11.184445 11.684445,11.184445 L14.8711118,11.184445 C15.1791916,11.184445 15.433334,10.9303026 15.433334,10.6222227 L15.433334,10.0600004 L14.8400006,10.0600004 L14.8400006,10.5911116 L11.7155561,10.5911116 L11.7155561,6.40444475 L14.8400006,6.40444475 L14.8400006,6.93555588 L15.433334,6.93555588 Z"></path>
                        </g>
                    </g>
                </g>
            </g>
        </g>
    </g>
</svg>