<?xml version="1.0" encoding="UTF-8" standalone="no"?>
<svg width="20px" height="17px" viewBox="0 0 20 17" version="1.1" xmlns="http://www.w3.org/2000/svg" xmlns:xlink="http://www.w3.org/1999/xlink">
    <!-- Generator: Sketch 46 (44423) - http://www.bohemiancoding.com/sketch -->
    <title>Icon</title>
    <desc>Created with Sketch.</desc>
    <defs></defs>
    <g id="Page-1" stroke="none" stroke-width="1" fill="none" fill-rule="evenodd">
        <g id="New-Video-Player" transform="translate(-984.000000, -1171.000000)" fill="#44464A">
            <g id="Default-Play" transform="translate(380.000000, 747.000000)">
                <g id="Player-UI" transform="translate(0.000000, 404.000000)">
                    <g id="Close-Caption" transform="translate(604.000000, 20.000000)">
                        <path d="M17,0 L2.125,0 C0.945625,0 0,0.95625 0,2.125 L0,14.875 C0,16.04375 0.945625,17 2.125,17 L17,17 C18.16875,17 19.125,16.04375 19.125,14.875 L19.125,2.125 C19.125,0.95625 18.16875,0 17,0 L17,0 Z M8.5,7.4375 L6.90625,7.4375 L6.90625,6.90625 L4.78125,6.90625 L4.78125,10.09375 L6.90625,10.09375 L6.90625,9.5625 L8.5,9.5625 L8.5,10.625 C8.5,11.209375 8.021875,11.6875 7.4375,11.6875 L4.25,11.6875 C3.665625,11.6875 3.1875,11.209375 3.1875,10.625 L3.1875,6.375 C3.1875,5.790625 3.665625,5.3125 4.25,5.3125 L7.4375,5.3125 C8.021875,5.3125 8.5,5.790625 8.5,6.375 L8.5,7.4375 L8.5,7.4375 Z M15.9375,7.4375 L14.34375,7.4375 L14.34375,6.90625 L12.21875,6.90625 L12.21875,10.09375 L14.34375,10.09375 L14.34375,9.5625 L15.9375,9.5625 L15.9375,10.625 C15.9375,11.209375 15.459375,11.6875 14.875,11.6875 L11.6875,11.6875 C11.103125,11.6875 10.625,11.209375 10.625,10.625 L10.625,6.375 C10.625,5.790625 11.103125,5.3125 11.6875,5.3125 L14.875,5.3125 C15.459375,5.3125 15.9375,5.790625 15.9375,6.375 L15.9375,7.4375 L15.9375,7.4375 Z" id="Icon"></path>
                    </g>
                </g>
            </g>
        </g>
    </g>
</svg>