<?xml version="1.0" encoding="UTF-8" standalone="no"?>
<svg width="17px" height="17px" viewBox="0 0 17 17" version="1.1" xmlns="http://www.w3.org/2000/svg" xmlns:xlink="http://www.w3.org/1999/xlink">
    <!-- Generator: Sketch 46.2 (44496) - http://www.bohemiancoding.com/sketch -->
    <title>Icon</title>
    <desc>Created with Sketch.</desc>
    <defs></defs>
    <g id="Page-1" stroke="none" stroke-width="1" fill="none" fill-rule="evenodd">
        <g id="New-Video-Player" transform="translate(-1031.000000, -1691.000000)" fill="#A27F48">
            <g id="Hover-States" transform="translate(380.000000, 1267.000000)">
                <g id="Player-UI" transform="translate(0.000000, 404.000000)">
                    <g id="Expand" transform="translate(651.000000, 20.000000)">
                        <path d="M11.3333333,0 L13.5055556,2.17222222 L10.7761111,4.88277778 L12.1172222,6.22388889 L14.8277778,3.49444444 L17,5.66666667 L17,0 L11.3333333,0 Z M0,5.66666667 L2.17222222,3.49444444 L4.88277778,6.22388889 L6.22388889,4.88277778 L3.49444444,2.17222222 L5.66666667,0 L0,0 L0,5.66666667 Z M5.66666667,17 L3.49444444,14.8277778 L6.22388889,12.1172222 L4.88277778,10.7761111 L2.17222222,13.5055556 L0,11.3333333 L0,17 L5.66666667,17 Z M17,11.3333333 L14.8277778,13.5055556 L12.1172222,10.7761111 L10.7761111,12.1172222 L13.5055556,14.8277778 L11.3333333,17 L17,17 L17,11.3333333 Z" id="Icon"></path>
                    </g>
                </g>
            </g>
        </g>
    </g>
</svg>