<?xml version="1.0" encoding="UTF-8" standalone="no"?>
<svg width="18px" height="18px" viewBox="0 0 18 18" version="1.1" xmlns="http://www.w3.org/2000/svg" xmlns:xlink="http://www.w3.org/1999/xlink">
    <!-- Generator: Sketch 46 (44423) - http://www.bohemiancoding.com/sketch -->
    <title>Icon</title>
    <desc>Created with Sketch.</desc>
    <defs></defs>
    <g id="Page-1" stroke="none" stroke-width="1" fill="none" fill-rule="evenodd">
        <g id="New-Video-Player" transform="translate(-887.000000, -2350.000000)" fill="#44464A">
            <g id="Volume-Styles" transform="translate(380.000000, 1797.000000)">
                <g id="Player-UI" transform="translate(0.000000, 404.000000)">
                    <g id="No-Volume" transform="translate(507.000000, 149.000000)">
                        <path d="M13.5,9 C13.5,7.23 12.48,5.71 11,4.97 L11,7.18 L13.45,9.63 C13.48,9.43 13.5,9.22 13.5,9 L13.5,9 Z M16,9 C16,9.94 15.8,10.82 15.46,11.64 L16.97,13.15 C17.63,11.91 18,10.5 18,9 C18,4.72 15.01,1.14 11,0.23 L11,2.29 C13.89,3.15 16,5.83 16,9 L16,9 Z M1.27,0 L0,1.27 L4.73,6 L0,6 L0,12 L4,12 L9,17 L9,10.27 L13.25,14.52 C12.58,15.04 11.83,15.45 11,15.7 L11,17.76 C12.38,17.45 13.63,16.81 14.69,15.95 L16.73,18 L18,16.73 L9,7.73 L1.27,0 L1.27,0 Z M9,1 L6.91,3.09 L9,5.18 L9,1 L9,1 Z" id="Icon"></path>
                    </g>
                </g>
            </g>
        </g>
    </g>
</svg>